<svg width="30" height="34" viewBox="0 0 30 34" fill="none" xmlns="http://www.w3.org/2000/svg">
<g clip-path="url(#clip0_27_12)">
<path d="M22.2328 12.2425C24.4216 13.807 27.1031 14.7276 29.9992 14.7276V9.15514C29.451 9.15536 28.9044 9.09814 28.3682 8.98444V13.3708C25.4723 13.3708 22.7912 12.4503 20.6019 10.8859V22.2578C20.6019 27.9467 15.9899 32.558 10.3011 32.558C8.17852 32.558 6.20555 31.9164 4.56668 30.8158C6.43723 32.7284 9.04582 33.9148 11.9317 33.9148C17.6209 33.9148 22.233 29.3034 22.233 23.6143V12.2425H22.2328ZM24.2449 6.6205C23.1262 5.39849 22.3917 3.81925 22.2328 2.07329V1.3566H20.6872C21.0763 3.57563 22.4034 5.47142 24.2449 6.6205ZM8.16481 26.4505C7.53977 25.6312 7.20193 24.6287 7.20352 23.598C7.20352 20.9962 9.31301 18.8865 11.9156 18.8865C12.4006 18.8863 12.8827 18.9607 13.345 19.1073V13.4102C12.8047 13.3362 12.2596 13.3047 11.7146 13.3163V17.7506C11.2521 17.604 10.7698 17.5296 10.2846 17.5299C7.68211 17.5299 5.57274 19.6393 5.57274 22.2415C5.57274 24.0815 6.62707 25.6745 8.16481 26.4505Z" fill="#FF004F"/>
<path d="M20.6019 10.8857C22.7913 12.4502 25.4722 13.3707 28.3682 13.3707V8.98432C26.7517 8.63998 25.3207 7.79538 24.2448 6.6205C22.4032 5.4713 21.0763 3.57551 20.6872 1.3566H16.6275V23.6141C16.6182 26.2088 14.5124 28.3098 11.9154 28.3098C10.3852 28.3098 9.02555 27.5804 8.16458 26.4504C6.62708 25.6745 5.57262 24.0814 5.57262 22.2416C5.57262 19.6397 7.682 17.53 10.2845 17.53C10.7831 17.53 11.2637 17.6077 11.7145 17.7507V13.3164C6.12563 13.4319 1.63091 17.9982 1.63091 23.6142C1.63091 26.4176 2.75016 28.9591 4.5668 30.8161C6.20567 31.9164 8.17852 32.5583 10.3013 32.5583C15.9901 32.5583 20.602 27.9466 20.602 22.2578L20.6019 10.8857Z" fill="black"/>
<path d="M28.3682 8.98421V7.79843C26.9105 7.80054 25.4816 7.39235 24.2448 6.6205C25.3396 7.81896 26.7811 8.64541 28.3682 8.98444M20.6871 1.35648C20.6501 1.14446 20.6216 0.931023 20.6018 0.716697V0H14.9963V22.2577C14.9873 24.8522 12.8815 26.9532 10.2844 26.9532C9.54812 26.9543 8.82192 26.7821 8.16445 26.4506C9.02543 27.5805 10.385 28.3097 11.9153 28.3097C14.5121 28.3097 16.6182 26.209 16.6274 23.6142V1.3566L20.6871 1.35648ZM11.7148 13.3163V12.0537C11.2464 11.9897 10.7741 11.9577 10.3014 11.9578C4.61191 11.9578 0 16.5694 0 22.2577C0 25.8241 1.81254 28.9671 4.56691 30.8158C2.75027 28.959 1.63102 26.4174 1.63102 23.6141C1.63102 17.9982 6.12563 13.4318 11.7148 13.3163Z" fill="#00F2EA"/>
</g>
<defs>
<clipPath id="clip0_27_12">
<rect width="30" height="34" fill="white"/>
</clipPath>
</defs>
</svg>
