<svg width="30" height="30" viewBox="0 0 30 30" fill="none" xmlns="http://www.w3.org/2000/svg">
<g clip-path="url(#clip0_24_16)">
<path d="M22.9688 0H7.03125C3.148 0 0 3.148 0 7.03125V22.9688C0 26.852 3.148 30 7.03125 30H22.9688C26.852 30 30 26.852 30 22.9688V7.03125C30 3.148 26.852 0 22.9688 0Z" fill="white"/>
<path d="M22.9688 0H7.03125C3.148 0 0 3.148 0 7.03125V22.9688C0 26.852 3.148 30 7.03125 30H22.9688C26.852 30 30 26.852 30 22.9688V7.03125C30 3.148 26.852 0 22.9688 0Z" fill="#1D9BF0"/>
<path d="M23.3873 10.7122C23.4002 10.8982 23.4002 11.0842 23.4002 11.2719C23.4002 16.9903 19.047 23.5854 11.0868 23.5854V23.5819C8.73518 23.5853 6.43231 22.9118 4.45312 21.6418C4.79523 21.6828 5.13859 21.7037 5.4832 21.7043C7.43227 21.7059 9.32528 21.0522 10.858 19.8482C9.95495 19.831 9.07982 19.5322 8.35492 18.9934C7.63003 18.4545 7.09161 17.7027 6.81492 16.8429C7.46329 16.9679 8.13172 16.9424 8.76867 16.7684C6.74977 16.3604 5.29723 14.5866 5.29723 12.5264V12.4716C5.89908 12.8068 6.57267 12.9926 7.26129 13.0132C5.3598 11.7423 4.77363 9.21257 5.92184 7.23468C7.00825 8.57175 8.36381 9.66529 9.90046 10.4442C11.4371 11.2232 13.1204 11.6701 14.8411 11.756C14.6695 11.0175 14.6949 10.247 14.9146 9.52137C15.1343 8.79576 15.5406 8.14056 16.093 7.62128C17.8361 5.98277 20.5774 6.06679 22.2159 7.8089C23.1851 7.61757 24.1145 7.26228 24.9641 6.75832C24.641 7.76035 23.965 8.61091 23.0617 9.15175C23.9195 9.05059 24.7573 8.82095 25.5469 8.47054C24.9661 9.34034 24.2348 10.0994 23.3873 10.7122Z" fill="white"/>
</g>
<defs>
<clipPath id="clip0_24_16">
<rect width="30" height="30" fill="white"/>
</clipPath>
</defs>
</svg>
